/* XPM */
static char * wmgui_16_xpm[] = {
"14 16 142 2",
"  	c None",
". 	c #000D2C",
"+ 	c #000D2B",
"@ 	c #000F35",
"# 	c #0A1638",
"$ 	c #28314B",
"% 	c #2C354F",
"& 	c #1E2845",
"* 	c #020F33",
"= 	c #001138",
"- 	c #001943",
"; 	c #001640",
"> 	c #60697C",
", 	c #DBD8D9",
"' 	c #E9E9E9",
") 	c #C8CACF",
"! 	c #1A2B4D",
"~ 	c #001B45",
"{ 	c #00244F",
"] 	c #00234F",
"^ 	c #002350",
"/ 	c #748294",
"( 	c #E2E2E2",
"_ 	c #DCDCDC",
": 	c #D8DBDE",
"< 	c #223D61",
"[ 	c #00224E",
"} 	c #00224D",
"| 	c #00204A",
"1 	c #002754",
"2 	c #00305F",
"3 	c #003566",
"4 	c #758A9D",
"5 	c #E6E6E6",
"6 	c #E0E0E0",
"7 	c #DADEE1",
"8 	c #224B72",
"9 	c #003260",
"0 	c #002A56",
"a 	c #001D48",
"b 	c #002958",
"c 	c #003A6B",
"d 	c #00487B",
"e 	c #7694A6",
"f 	c #DDDDDD",
"g 	c #DCE1E4",
"h 	c #225C84",
"i 	c #003E70",
"j 	c #002D5D",
"k 	c #00204C",
"l 	c #001C49",
"m 	c #00295B",
"n 	c #003C70",
"o 	c #005687",
"p 	c #769DAE",
"q 	c #EDEDED",
"r 	c #ECECEC",
"s 	c #DCE3E6",
"t 	c #22688E",
"u 	c #004376",
"v 	c #002E60",
"w 	c #001F4E",
"x 	c #011844",
"y 	c #001944",
"z 	c #001B4B",
"A 	c #00285D",
"B 	c #003E72",
"C 	c #005D8A",
"D 	c #729EAD",
"E 	c #DEDEDE",
"F 	c #D9DCDE",
"G 	c #C2C9CB",
"H 	c #1C688B",
"I 	c #004678",
"J 	c #002D62",
"K 	c #001E4F",
"L 	c #001945",
"M 	c #001B4C",
"N 	c #005E8B",
"O 	c #74A1B0",
"P 	c #E7E8E8",
"Q 	c #DFE1E2",
"R 	c #C2C9CC",
"S 	c #196688",
"T 	c #001D4F",
"U 	c #001946",
"V 	c #001C4A",
"W 	c #002A5C",
"X 	c #003D72",
"Y 	c #005888",
"Z 	c #759CAD",
"` 	c #E8E8EA",
" .	c #E0E0E3",
"..	c #C6CDD0",
"+.	c #196186",
"@.	c #004377",
"#.	c #002E61",
"$.	c #001E4E",
"%.	c #001D49",
"&.	c #002A59",
"*.	c #003B6D",
"=.	c #00497C",
"-.	c #7391A4",
";.	c #DDDDDE",
">.	c #C6CBCE",
",.	c #19547C",
"'.	c #003F72",
").	c #002E5E",
"!.	c #001F4C",
"~.	c #00204B",
"{.	c #002855",
"].	c #003160",
"^.	c #003666",
"/.	c #73889B",
"(.	c #E3E3E3",
"_.	c #D6D6D6",
":.	c #C5C9CC",
"<.	c #19456C",
"[.	c #003464",
"}.	c #002B59",
"|.	c #00214C",
"1.	c #00234E",
"2.	c #738092",
"3.	c #E5E6E6",
"4.	c #C6C8CB",
"5.	c #19365A",
"6.	c #002450",
"7.	c #001842",
"8.	c #00163F",
"9.	c #505B6F",
"0.	c #CACBCC",
"a.	c #D0D0D0",
"b.	c #A0A2A7",
"c.	c #102345",
"d.	c #001C47",
"e.	c #051134",
"f.	c #17213E",
"g.	c #1A2440",
"h.	c #0F1B39",
"i.	c #010E35",
"j.	c #00123A",
"k.	c #000C2C",
"            . +             ",
"        @ # $ % & * =       ",
"      - ; > , ' ) ! ; ~     ",
"    { ] ^ / ( _ : < [ }     ",
"  | 1 2 3 4 5 6 7 8 9 0 }   ",
"  a b c d e ( f g h i j k   ",
"  l m n o p q r s t u v w x ",
"y z A B C D E F G H I J K L ",
"y M A B N O P Q R S I J T U ",
"  V W X Y Z `  ...+.@.#.$.x ",
"  %.&.*.=.-.5 ;.>.,.'.).!.  ",
"  ~.{.].^./.(._.:.<.[.}.|.  ",
"    1.] ^ 2.3.E 4.5.6.]     ",
"      7.8.9.0.a.b.c.7.d.    ",
"        @ e.f.g.h.i.j.      ",
"            k..             "};
