/* XPM */
static char * wmgui_32_xpm[] = {
"28 32 444 2",
"  	c None",
". 	c #010F2D",
"+ 	c #000F2C",
"@ 	c #000C2E",
"# 	c #000B2C",
"$ 	c #000B2B",
"% 	c #000B2A",
"& 	c #000B29",
"* 	c #000A2A",
"= 	c #000F35",
"- 	c #000D32",
"; 	c #000C30",
"> 	c #020E2F",
", 	c #051030",
"' 	c #061030",
") 	c #061130",
"! 	c #051031",
"~ 	c #020D2F",
"{ 	c #000C2F",
"] 	c #00163E",
"^ 	c #00133B",
"/ 	c #001138",
"( 	c #000F36",
"_ 	c #051237",
": 	c #212B48",
"< 	c #464D62",
"[ 	c #50576B",
"} 	c #52596D",
"| 	c #535A6D",
"1 	c #4B5267",
"2 	c #252F4B",
"3 	c #061437",
"4 	c #000E35",
"5 	c #001037",
"6 	c #01133A",
"7 	c #001C44",
"8 	c #001841",
"9 	c #00153F",
"0 	c #00143D",
"a 	c #00123C",
"b 	c #1D2A4B",
"c 	c #7E818E",
"d 	c #CAC8CA",
"e 	c #D7D6D6",
"f 	c #E1E1E1",
"g 	c #E4E4E4",
"h 	c #DBDCDD",
"i 	c #8F939E",
"j 	c #253150",
"k 	c #01123A",
"l 	c #00153D",
"m 	c #001E48",
"n 	c #001C46",
"o 	c #001A45",
"p 	c #001943",
"q 	c #001843",
"r 	c #344562",
"s 	c #B0B2B6",
"t 	c #E4E1E2",
"u 	c #E6E3E3",
"v 	c #ECECEC",
"w 	c #F4F4F4",
"x 	c #F8F8F8",
"y 	c #C0C3C9",
"z 	c #3E4D68",
"A 	c #041A42",
"B 	c #001842",
"C 	c #011E48",
"D 	c #00234D",
"E 	c #00224D",
"F 	c #00214B",
"G 	c #00204B",
"H 	c #001F4B",
"I 	c #354A68",
"J 	c #B5B8BC",
"K 	c #E0E0E0",
"L 	c #D8D8D8",
"M 	c #E6E6E6",
"N 	c #F5F5F5",
"O 	c #C2C6CC",
"P 	c #41536F",
"Q 	c #04214B",
"R 	c #001E4A",
"S 	c #001E49",
"T 	c #001F4A",
"U 	c #01234E",
"V 	c #00244E",
"W 	c #002450",
"X 	c #002551",
"Y 	c #002652",
"Z 	c #002653",
"` 	c #002754",
" .	c #002755",
"..	c #35506F",
"+.	c #B3B7BB",
"@.	c #D9D9D9",
"#.	c #EAEAEA",
"$.	c #C1C6CC",
"%.	c #415875",
"&.	c #042954",
"*.	c #002552",
"=.	c #00244F",
"-.	c #00224C",
";.	c #002451",
">.	c #002855",
",.	c #002C5A",
"'.	c #002F5D",
").	c #003060",
"!.	c #003061",
"~.	c #355677",
"{.	c #B4B8BD",
"].	c #E5E5E5",
"^.	c #DCDCDC",
"/.	c #DBDBDB",
"(.	c #DFDFDF",
"_.	c #EEEEEE",
":.	c #C2C7CE",
"<.	c #415E7C",
"[.	c #04315F",
"}.	c #002A56",
"|.	c #00234F",
"1.	c #00214C",
"2.	c #002B58",
"3.	c #003160",
"4.	c #003666",
"5.	c #00396B",
"6.	c #003A6D",
"7.	c #355D7F",
"8.	c #B6BBC0",
"9.	c #F1F1F1",
"0.	c #C2CAD0",
"a.	c #416483",
"b.	c #043A6A",
"c.	c #003768",
"d.	c #003463",
"e.	c #002E5C",
"f.	c #001B46",
"g.	c #002C5B",
"h.	c #003565",
"i.	c #003C6E",
"j.	c #004274",
"k.	c #004578",
"l.	c #356587",
"m.	c #B6BCC1",
"n.	c #EDEDED",
"o.	c #F7F7F7",
"p.	c #C2CBD2",
"q.	c #416B8B",
"r.	c #044474",
"s.	c #003F71",
"t.	c #00396A",
"u.	c #002957",
"v.	c #001D48",
"w.	c #011C46",
"x.	c #001945",
"y.	c #002554",
"z.	c #002D5D",
"A.	c #004072",
"B.	c #00497C",
"C.	c #005183",
"D.	c #356F90",
"E.	c #B6BEC2",
"F.	c #E8E8E8",
"G.	c #D6D6D6",
"H.	c #D1D1D1",
"I.	c #C2CDD4",
"J.	c #417393",
"K.	c #044D7E",
"L.	c #004478",
"M.	c #003B6E",
"N.	c #003263",
"O.	c #002958",
"P.	c #002250",
"Q.	c #001C47",
"R.	c #011944",
"S.	c #001742",
"T.	c #001E4D",
"U.	c #002555",
"V.	c #002E5F",
"W.	c #00376A",
"X.	c #004175",
"Y.	c #004D80",
"Z.	c #00598A",
"`.	c #357797",
" +	c #B6BFC3",
".+	c #EBEBEB",
"++	c #C2CFD5",
"@+	c #417997",
"#+	c #045383",
"$+	c #00477B",
"%+	c #003D70",
"&+	c #003265",
"*+	c #00295A",
"=+	c #002252",
"-+	c #001B48",
";+	c #001E4E",
">+	c #002557",
",+	c #002D61",
"'+	c #00376B",
")+	c #004276",
"!+	c #005083",
"~+	c #00608F",
"{+	c #357D9A",
"]+	c #B6C0C4",
"^+	c #F2F2F2",
"/+	c #C0CED3",
"(+	c #3F7C98",
"_+	c #045785",
":+	c #004A7D",
"<+	c #003D71",
"[+	c #003266",
"}+	c #00295C",
"|+	c #002253",
"1+	c #001B49",
"2+	c #001744",
"3+	c #001844",
"4+	c #001846",
"5+	c #001D4F",
"6+	c #002458",
"7+	c #00376D",
"8+	c #004377",
"9+	c #005384",
"0+	c #006590",
"a+	c #35819C",
"b+	c #B2BCC0",
"c+	c #E5E6E6",
"d+	c #E4E7E8",
"e+	c #E5E7E8",
"f+	c #E7E7E7",
"g+	c #B1BFC4",
"h+	c #397893",
"i+	c #035A86",
"j+	c #004C7E",
"k+	c #003E72",
"l+	c #00295D",
"m+	c #002254",
"n+	c #001A4A",
"o+	c #001745",
"p+	c #001847",
"q+	c #001D50",
"r+	c #002358",
"s+	c #002C62",
"t+	c #00386D",
"u+	c #005584",
"v+	c #006791",
"w+	c #35839C",
"x+	c #ADB8BB",
"y+	c #D2D4D5",
"z+	c #CED2D6",
"A+	c #CDD0D2",
"B+	c #D0D0D0",
"C+	c #9FADB2",
"D+	c #32738D",
"E+	c #035B86",
"F+	c #004D7E",
"G+	c #003F73",
"H+	c #003267",
"I+	c #00285D",
"J+	c #002054",
"K+	c #001A46",
"L+	c #002359",
"M+	c #005685",
"N+	c #006891",
"O+	c #35839D",
"P+	c #B2BDC0",
"Q+	c #E0E1E1",
"R+	c #DBDDDF",
"S+	c #DADCDD",
"T+	c #A1AFB4",
"U+	c #30728B",
"V+	c #025B86",
"W+	c #00275D",
"X+	c #002D62",
"Y+	c #005585",
"Z+	c #006691",
"`+	c #35829D",
" @	c #B6C1C4",
".@	c #EFEFEF",
"+@	c #E8E9EB",
"@@	c #E2E3E5",
"#@	c #E6E7E8",
"$@	c #A5B3B8",
"%@	c #30718B",
"&@	c #025A85",
"*@	c #002154",
"=@	c #011C47",
"-@	c #001946",
";@	c #001E4F",
">@	c #002558",
",@	c #002E61",
"'@	c #005284",
")@	c #006290",
"!@	c #357F9B",
"~@	c #B5BFC3",
"{@	c #E3E4E6",
"]@	c #DADBDE",
"^@	c #A5B2B8",
"/@	c #306F8A",
"(@	c #025784",
"_@	c #004B7D",
":@	c #003D72",
"<@	c #001A49",
"[@	c #001F4E",
"}@	c #002656",
"|@	c #002F61",
"1@	c #00386C",
"2@	c #004F81",
"3@	c #005C8C",
"4@	c #357897",
"5@	c #B4BCC0",
"6@	c #EBEBEC",
"7@	c #E5E5E7",
"8@	c #DEDFE2",
"9@	c #E5E5E6",
"0@	c #A5B1B7",
"a@	c #306B88",
"b@	c #025382",
"c@	c #00487C",
"d@	c #00295B",
"e@	c #001F4C",
"f@	c #002655",
"g@	c #002F5F",
"h@	c #00386A",
"i@	c #004174",
"j@	c #004A7E",
"k@	c #005285",
"l@	c #346F90",
"m@	c #B2BABE",
"n@	c #E4E4E5",
"o@	c #DCDCDE",
"p@	c #A5B0B6",
"q@	c #306483",
"r@	c #024D7D",
"s@	c #004579",
"t@	c #003C70",
"u@	c #003264",
"v@	c #002251",
"w@	c #011844",
"x@	c #002654",
"y@	c #002E5D",
"z@	c #003667",
"A@	c #003D6F",
"B@	c #004376",
"C@	c #004679",
"D@	c #346487",
"E@	c #B2B8BD",
"F@	c #DEDEDE",
"G@	c #D5D5D5",
"H@	c #A5AEB4",
"I@	c #305D7D",
"J@	c #024475",
"K@	c #003A6C",
"L@	c #003262",
"M@	c #00224F",
"N@	c #001C48",
"O@	c #011B45",
"P@	c #00204C",
"Q@	c #002553",
"R@	c #003767",
"S@	c #003A6B",
"T@	c #003B6D",
"U@	c #345C7F",
"V@	c #B2B7BC",
"W@	c #CFCFCF",
"X@	c #A5ADB3",
"Y@	c #305675",
"Z@	c #023B6B",
"`@	c #002856",
" #	c #00224E",
".#	c #002956",
"+#	c #002F5E",
"@#	c #003162",
"##	c #345577",
"$#	c #B2B6BB",
"%#	c #DDDDDD",
"&#	c #A5ABB2",
"*#	c #30506E",
"=#	c #023261",
"-#	c #003161",
";#	c #002C59",
">#	c #00234E",
",#	c #002756",
"'#	c #344E6F",
")#	c #B2B5BA",
"!#	c #A5AAB0",
"~#	c #304A67",
"{#	c #022955",
"]#	c #00204A",
"^#	c #344968",
"/#	c #B1B5B9",
"(#	c #EAEBEC",
"_#	c #E1E2E2",
":#	c #A5A9AF",
"<#	c #304460",
"[#	c #02214C",
"}#	c #00214D",
"|#	c #001D47",
"1#	c #001B45",
"2#	c #001A44",
"3#	c #2E3F5C",
"4#	c #A6A9AD",
"5#	c #E7E8E8",
"6#	c #E9EAEA",
"7#	c #E9E9E9",
"8#	c #9B9EA4",
"9#	c #2B3B56",
"0#	c #021A42",
"a#	c #011F4A",
"b#	c #001B43",
"c#	c #001740",
"d#	c #00153E",
"e#	c #00133C",
"f#	c #122142",
"g#	c #5B626F",
"h#	c #A5A6A8",
"i#	c #B5B5B7",
"j#	c #B6B6B8",
"k#	c #B6B6B7",
"l#	c #A5A5A8",
"m#	c #5A606D",
"n#	c #132241",
"o#	c #00143C",
"p#	c #00143E",
"q#	c #00163F",
"r#	c #00163D",
"s#	c #00123A",
"t#	c #021035",
"u#	c #111C3B",
"v#	c #273049",
"w#	c #30384F",
"x#	c #313950",
"y#	c #28324A",
"z#	c #111D3C",
"A#	c #021136",
"B#	c #000F37",
"C#	c #001139",
"D#	c #01143C",
"E#	c #010C2F",
"F#	c #030F30",
"G#	c #020E30",
"H#	c #000C31",
"I#	c #000D34",
"J#	c #000B2D",
"K#	c #000F2D",
"                          . +                           ",
"                    @ # $ % % & * $                     ",
"                = - ; > , ' ) ) ! ~ { -                 ",
"            ] ^ / ( _ : < [ } | 1 2 3 4 5 6             ",
"          7 8 9 0 a b c d e f g h i j k a l 8           ",
"          m n o p q r s t u v w x y z A B p o C         ",
"        D E F G H H I J v K L M N O P Q R S T G U       ",
"      V W X Y Z `  ...+.f @.@.@.#.$.%.&.*.X W =.V       ",
"      -.;.>.,.'.).!.~.{.].^./.(._.:.<.[.'.,.}.Y |.1.    ",
"    m G ;.2.3.4.5.6.7.8.9.M /.v x 0.a.b.c.d.e.>.|.T     ",
"    f.H *.g.h.i.j.k.l.m.n.(.@.#.o.p.q.r.s.t.3.u.|.v.w.  ",
"    x.H y.z.c.A.B.C.D.E.F.G.H.f w I.J.K.L.M.N.O.P.Q.R.  ",
"  S.x.T.U.V.W.X.Y.Z.`. +n.g (..+o.++@+#+$+%+&+*+=+-+q   ",
"  S.x.;+>+,+'+)+!+~+{+]+9.9.^+N x /+(+_+:+<+[+}+|+1+2+  ",
"  3+4+5+6+,+7+8+9+0+a+b+M c+d+e+f+g+h+i+j+k+[+l+m+n+o+w.",
"  3+p+q+r+s+t+k.u+v+w+x+@.y+z+A+B+C+D+E+F+G+H+I+J+n+o+K+",
"  3+p+q+L+s+t+k.M+N+O+P+].Q+R+S+/.T+U+V+F+G+H+W+J+n+o+K+",
"  3+p+q+6+X+t+k.Y+Z+`+ @.@+@@@#@F.$@%@&@F+G+H+I+*@n+o+=@",
"  q -@;@>@,@t+8+'@)@!@~@n.{@]@@@F.^@/@(@_@:@[+l+|+<@2+  ",
"  S.x.[@}@|@1@)+2@3@4@5@6@7@8@9@F.0@a@b@c@<+[+d@|+1+2+  ",
"    x.e@f@g@h@i@j@k@l@m@.+n@o@].F.p@q@r@s@t@u@*+v@-+w@  ",
"    f.G x@y@z@A@B@C@D@E@#.F@G@(.].H@I@J@i@K@L@O.M@N@O@  ",
"    m P@Q@,.L@R@S@T@U@V@#.^.W@^.M X@Y@Z@S@4.g@`@ #S     ",
"      E X .#g.+#3.@###$##.%#H.^.].&#*#=#-#+#;#` >#G     ",
"      |.|.;.Y Z  .,#'#)##.^.H.F@M !#~#{#>.` Y W >#      ",
"        E 1.]#H H e@^#/#(#c+_#M f+:#<#[#P@P@1.}#U       ",
"          |#1#2#p q 3#4#5#6#7##.g 8#9#0#2#1#Q.a#        ",
"          b#c#d#e#^ f#g#h#i#j#k#l#m#n#o#p#q#p           ",
"            r#s#5 ( t#u#v#w#x#x#y#z#A#B#C#D#            ",
"                = - ; E#> F#F#F#G#E#H#I#                ",
"                    @ # $ $ % $ $ J#                    ",
"                          . K#                          "};
